<svg height="512" viewBox="0 0 512 512" width="512" xmlns="http://www.w3.org/2000/svg"><g id="filled_outline" data-name="filled outline"><path d="m461.41 167.166-13.41-87.166 8-16-8-16h-48l-8 16 8 16-13.41 87.166a68 68 0 0 1 -12.809 30.46l-.181.241a68 68 0 0 0 -13.6 40.8v221.333a28 28 0 0 0 28 28h72a28 28 0 0 0 28-28v-221.333a68 68 0 0 0 -13.6-40.8l-.181-.241a68 68 0 0 1 -12.809-30.46z" fill="#814910"/><path d="m488 448v12a27.693 27.693 0 0 1 -.29 4h-47.71a8 8 0 0 1 0-16z" fill="#814910"/><path d="m402 24h44a10 10 0 0 1 10 10v14a0 0 0 0 1 0 0h-64a0 0 0 0 1 0 0v-14a10 10 0 0 1 10-10z" fill="#e2e2e2"/><path d="m392 36h64v12h-64z" fill="#cbcbcb"/><path d="m360 264h128v144h-128z" fill="#fbb540"/><path d="m448 80h-48l-13.41 87.166 37.41 16.834 37.41-16.834z" fill="#fbb540"/><path d="m449.16 87.54h-50.32l1.16-7.54h48z" fill="#fd9226"/><path d="m461.41 167.17-37.41 16.83-37.41-16.83.03-.17 1.56-10.2 35.82 18.39 35.99-17.28z" fill="#fd9226"/><path d="m112 168v72h-28a60 60 0 0 0 -60 60v72a60 60 0 0 0 60 60h28v24h200v-288zm0 224h-28a20 20 0 0 1 -20-20v-72a20 20 0 0 1 20-20h28z" fill="#e2e2e2"/><path d="m300 128a35.833 35.833 0 0 0 -16 3.751 35.988 35.988 0 0 0 -40 5.423 36 36 0 0 0 -41.344-4.723 43.963 43.963 0 0 0 -62.377 1.074 40 40 0 1 0 5.03 65.447 43.966 43.966 0 0 0 57.346-3.423 36 36 0 0 0 41.345-4.723 35.988 35.988 0 0 0 40 5.423 36 36 0 1 0 16-68.249z" fill="#ffc864"/><path d="m312 488h-200a35.778 35.778 0 0 1 0-32h200a35.778 35.778 0 0 1 0 32z" fill="#e2e2e2"/><path d="m112 240h200v216h-200z" fill="#fbb540"/><g fill="#ea9d2d"><path d="m168 416a8 8 0 0 1 -8-8v-108a4 4 0 0 0 -8 0v12a8 8 0 0 1 -16 0v-12a20 20 0 0 1 40 0v108a8 8 0 0 1 -8 8z"/><path d="m224 416a8 8 0 0 1 -8-8v-108a4 4 0 0 0 -8 0v12a8 8 0 0 1 -16 0v-12a20 20 0 0 1 40 0v108a8 8 0 0 1 -8 8z"/><path d="m280 416a8 8 0 0 1 -8-8v-108a4 4 0 0 0 -8 0v12a8 8 0 0 1 -16 0v-12a20 20 0 0 1 40 0v108a8 8 0 0 1 -8 8z"/></g><path d="m408 464h-16a8 8 0 0 1 0-16h16a8 8 0 0 1 0 16z" fill="#683b0d"/><path d="m488 448v12a27.693 27.693 0 0 1 -.29 4h-47.71a8 8 0 0 1 0-16z" fill="#683b0d"/><path d="m360 264h128v8h-128z" fill="#d18d28"/><path d="m360 400h128v8h-128z" fill="#d18d28"/><circle cx="424" cy="272" fill="#d18d28" r="40"/><circle cx="424" cy="272" fill="#e2e2e2" r="35.346"/><path d="m461.41 167.17-37.41 16.83-37.38-17 1.56-10.2 35.82 18.39 35.99-17.28z" fill="#d18d28"/><path d="m449.16 87.54h-50.32l1.16-7.54h48z" fill="#d18d28"/><path d="m480.619 192.826a60.215 60.215 0 0 1 -11.3-26.877l-13.025-84.649 6.861-13.722a8 8 0 0 0 0-7.156l-2.844-5.69a7.988 7.988 0 0 0 3.689-6.732v-14a18.021 18.021 0 0 0 -18-18h-44a18.021 18.021 0 0 0 -18 18v14a7.988 7.988 0 0 0 3.689 6.732l-2.844 5.69a8 8 0 0 0 0 7.156l6.861 13.722-13.023 84.649a60.2 60.2 0 0 1 -11.3 26.868l-.188.249a76.482 76.482 0 0 0 -15.2 45.6v221.334a36.04 36.04 0 0 0 36 36h72a36.04 36.04 0 0 0 36-36v-221.333a76.483 76.483 0 0 0 -15.206-45.609zm-80.619-158.826a2 2 0 0 1 2-2h44a2 2 0 0 1 2 2v6h-48zm47.056 30-4 8h-38.112l-4-8 4-8h38.112zm-40.192 24h34.272l11.442 74.367-28.578 12.861-28.578-12.861zm73.136 360h-40a8 8 0 0 0 0 16h39.6a20.032 20.032 0 0 1 -19.6 16h-72a20.023 20.023 0 0 1 -20-20v-44h112zm0-48h-112v-128h8a48 48 0 0 0 96 0h8zm-88-128a32 32 0 1 1 32 32 32.036 32.036 0 0 1 -32-32zm88-16h-10.752a47.99 47.99 0 0 0 -90.5 0h-10.748v-17.333a60.375 60.375 0 0 1 11.993-35.992l.187-.249a76.275 76.275 0 0 0 12.039-23.955l28.5 12.825a8.007 8.007 0 0 0 6.566 0l28.5-12.825a76.3 76.3 0 0 0 12.045 23.964l.174.231a60.381 60.381 0 0 1 12 36z"/><path d="m392 464h16a8 8 0 0 0 0-16h-16a8 8 0 0 0 0 16z"/><path d="m320 203.172a43.988 43.988 0 0 0 -20-83.172 43.561 43.561 0 0 0 -16 3.006 44.029 44.029 0 0 0 -40 4.117 44.006 44.006 0 0 0 -40.007-4.11 51.984 51.984 0 0 0 -65.077.872 48 48 0 1 0 -34.916 89.363v18.752h-20a68.077 68.077 0 0 0 -68 68v72a68.077 68.077 0 0 0 68 68h20v14.245a43.993 43.993 0 0 0 .845 37.333 8 8 0 0 0 7.155 4.422h200a8 8 0 0 0 7.155-4.422 43.993 43.993 0 0 0 .845-37.333zm-216 180.828h-20a12.013 12.013 0 0 1 -12-12v-72a12.013 12.013 0 0 1 12-12h20zm200 64h-184v-200h184zm-216-280a32 32 0 0 1 48.217-27.583 8 8 0 0 0 9.831-1.349 35.962 35.962 0 0 1 51.032-.88 8 8 0 0 0 9.435 1.271 28 28 0 0 1 32.149 3.675 8 8 0 0 0 10.672 0 27.989 27.989 0 0 1 31.1-4.22 8 8 0 0 0 7.124 0 27.694 27.694 0 0 1 12.44-2.914 28 28 0 0 1 0 56 27.694 27.694 0 0 1 -12.438-2.914 8 8 0 0 0 -7.124 0 27.989 27.989 0 0 1 -31.1-4.22 8 8 0 0 0 -10.672 0 28 28 0 0 1 -32.149 3.675 8 8 0 0 0 -9.435 1.271 35.965 35.965 0 0 1 -46.913 2.8 8 8 0 0 0 -9.925.165 31.608 31.608 0 0 1 -20.244 7.223 32.036 32.036 0 0 1 -32-32zm57.432 40.706a52 52 0 0 0 58.561-3.719 44.006 44.006 0 0 0 40.007-4.11 44.029 44.029 0 0 0 40 4.117 43.561 43.561 0 0 0 16 3.006c1.349 0 2.682-.071 4-.19v24.19h-184v-16a48.13 48.13 0 0 0 25.432-7.294zm-61.432 215.294a52.059 52.059 0 0 1 -52-52v-72a52.059 52.059 0 0 1 52-52h20v24h-20a28.032 28.032 0 0 0 -28 28v72a28.032 28.032 0 0 0 28 28h20v24zm222.6 56h-189.195a28.021 28.021 0 0 1 0-16h189.195a28.021 28.021 0 0 1 0 16z"/><path d="m144 320a8 8 0 0 0 8-8v-12a4 4 0 0 1 8 0v108a8 8 0 0 0 16 0v-108a20 20 0 0 0 -40 0v12a8 8 0 0 0 8 8z"/><path d="m200 320a8 8 0 0 0 8-8v-12a4 4 0 0 1 8 0v108a8 8 0 0 0 16 0v-108a20 20 0 0 0 -40 0v12a8 8 0 0 0 8 8z"/><path d="m256 320a8 8 0 0 0 8-8v-12a4 4 0 0 1 8 0v108a8 8 0 0 0 16 0v-108a20 20 0 0 0 -40 0v12a8 8 0 0 0 8 8z"/></g></svg>