<svg id="filled_outline" enable-background="new 0 0 512 512" height="512" viewBox="0 0 512 512" width="512" xmlns="http://www.w3.org/2000/svg"><g><path d="m280 135.9v-23.9h-48v23.9c0 10.308-4.095 20.194-11.384 27.483l-26.316 26.317c-6.595 6.596-10.3 15.542-10.3 24.87v104.608c0 11.063 2.576 21.973 7.523 31.868 5.242 10.484 4.464 22.972-2.037 32.725-3.577 5.365-5.486 11.67-5.486 18.118v22.968c0 14.818 5.887 29.03 16.365 39.508 4.889 4.889 11.521 7.636 18.435 7.635 3.331 0 6.526-1.323 8.881-3.679l5.329-5.329c2.783-2.783 7.294-2.784 10.078-.001.542.542.994 1.168 1.336 1.854 2.193 4.384 6.674 7.154 11.576 7.155 4.903 0 9.385-2.77 11.578-7.155 1.759-3.521 6.039-4.948 9.56-3.189.686.343 1.312.794 1.854 1.336l5.329 5.329c2.355 2.355 5.549 3.678 8.879 3.679 6.914 0 13.544-2.746 18.433-7.635 10.479-10.478 16.366-24.689 16.367-39.508v-22.968c0-6.448-1.909-12.753-5.486-18.118-6.501-9.753-7.279-22.241-2.037-32.725 4.947-9.895 7.523-20.805 7.523-31.868v-104.608c0-9.328-3.705-18.274-10.3-24.87l-26.313-26.313c-7.291-7.289-11.387-17.177-11.387-27.487z" fill="#330b06"/><path d="m216.365 464.365c-10.478-10.478-16.365-24.69-16.365-39.508v-22.968c0-6.448 1.909-12.753 5.486-18.118 6.502-9.753 7.279-22.241 2.037-32.725-4.947-9.895-7.523-20.805-7.523-31.868v-104.608c0-9.328 3.705-18.274 10.3-24.87l26.313-26.313c7.291-7.289 11.387-17.177 11.387-27.487v-23.9h-16v23.9c0 10.308-4.095 20.194-11.384 27.483l-26.316 26.317c-6.595 6.596-10.3 15.542-10.3 24.87v104.608c0 11.063 2.576 21.973 7.523 31.868 5.242 10.484 4.465 22.972-2.037 32.725-3.577 5.365-5.486 11.67-5.486 18.118v22.968c0 14.818 5.887 29.03 16.365 39.508 4.889 4.889 11.521 7.636 18.435 7.635 2.281-.005 4.518-.631 6.47-1.812-3.337-1.308-6.369-3.29-8.905-5.823z" fill="#873c1e"/><path d="m224 72h64v48h-64z" fill="#db3535"/><path d="m272 72h16v48h-16z" fill="#ba2a2a"/><path d="m184 216h144v96h-144z" fill="#db3535"/><path d="m256 216h72v96h-72z" fill="#ba2a2a"/><path d="m136 456h-96l-16-16v-160l16-32h96l16 32v160z" fill="#d1e3ee"/><path d="m136 456h-96l-16-16h128z" fill="#a9bfd1"/><path d="m136 248h-32l16 32v160l-16 16h32l16-16v-160z" fill="#a9bfd1"/><path d="m136 456h-32l16-16h32z" fill="#8da3b2"/><path d="m455.516 216.735-8.307-100.556h-47.17l-7.555 100.556c-.315 4.73-2.072 9.25-5.033 12.951l-22.367 27.958c-3.292 4.116-5.085 9.23-5.084 14.5v160.656c0 12.813 10.387 23.2 23.2 23.2h81.6c12.813 0 23.2-10.387 23.2-23.2v-160.661c.001-5.27-1.792-10.384-5.084-14.5l-22.367-27.958c-2.96-3.7-4.717-8.218-5.033-12.946z" fill="#83a603"/><path d="m482.916 257.645-22.367-27.959c-2.961-3.701-4.718-8.221-5.033-12.951l-8.307-100.556h-16l8.307 100.556c.315 4.73 2.072 9.25 5.033 12.951l22.367 27.959c3.291 4.114 5.084 9.226 5.084 14.494v160.661c0 12.813-10.387 23.2-23.2 23.2h16c12.813 0 23.2-10.387 23.2-23.2v-160.661c0-5.268-1.793-10.38-5.084-14.494z" fill="#365902"/><path d="m380 432.8v-160.661c0-5.268 1.793-10.38 5.084-14.494l22.367-27.959c2.961-3.701 4.718-8.221 5.033-12.951l7.555-100.556h-20l-7.555 100.556c-.315 4.73-2.072 9.25-5.033 12.951l-22.367 27.959c-3.291 4.114-5.084 9.226-5.084 14.494v160.661c0 12.813 10.387 23.2 23.2 23.2h20c-12.813 0-23.2-10.387-23.2-23.2z" fill="#d0dd83"/><path d="m360 288h128v128h-128z" fill="#cccbb2"/><path d="m472 288h16v128h-16z" fill="#a8a794"/><path d="m360 288h24v128h-24z" fill="#f6f6e7"/><path d="m24 280h128v152h-128z" fill="#2358ad"/><path d="m24 280h16v152h-16z" fill="#91b9f2"/><path d="m120 280h32v152h-32z" fill="#1c4684"/><ellipse cx="88" cy="360" fill="#db3535" rx="48" ry="40"/><path d="m104.208 322.344c9.698 7.319 15.792 17.894 15.792 29.656 0 22.091-21.49 40-48 40-5.488.009-10.948-.781-16.208-2.344 9.335 6.84 20.636 10.469 32.208 10.344 26.51 0 48-17.909 48-40 0-17.35-13.259-32.116-31.792-37.656z" fill="#ba2a2a"/><path d="m288 216-16.229 27.048c-4.616 7.694-13.72 11.465-22.425 9.289l-1.481-.371c-9.269-2.317-18.905 2.114-23.178 10.66l-24.687 49.374h40l3.056-12.223c2.73-10.922 13.798-17.563 24.72-14.833h.001c7.491 1.873 15.397-.647 20.422-6.51l39.801-46.434v-16z" fill="#f6f6e7"/><path d="m448 344c.86 0 1.714-.139 2.529-.412l24-8-5.06-15.178-17.417 5.805-12.9-25.794-14.31 7.156 16 32c1.355 2.711 4.127 4.424 7.158 4.423z" fill="#1b4001"/><path d="m452.438 345.344-4.454 6.679c0-.11.015-.219.01-.33-.112-2.917-1.805-5.542-4.416-6.848l-48-24-7.156 14.31 34.966 17.483-27.5 16.5 8.232 13.72 27.829-16.7c-.541 16.198-5.598 31.923-14.6 45.4l6.651 4.442h9.437c9.544-15.974 14.577-34.237 14.563-52.844v-1.541l19.562 13.041 8.876-13.312z" fill="#1b4001"/><path d="m435.49 168-4.281-51.821h-11.17l-3.893 51.821z" fill="#a9e9ff"/><path d="m451.49 168-4.281-51.821h-16l4.281 51.821z" fill="#88d0ef"/><path d="m416.146 168 3.893-51.821h-20l-3.893 51.821z" fill="#d2f5ff"/><path d="m406.548 88h34.9c8.035-.002 14.55 6.509 14.552 14.544v.004 17.452h-64v-17.452c0-8.035 6.513-14.548 14.548-14.548z" fill="#d98218"/><path d="m430.548 88h-24c-8.035 0-14.548 6.513-14.548 14.548v17.452h24v-17.452c0-8.035 6.513-14.548 14.548-14.548z" fill="#ffbf41"/><path d="m288 216-16.229 27.048c-3.373 5.619-9.241 9.273-15.771 9.822v32.649c3.782-1.354 7.881-1.554 11.777-.575 7.491 1.873 15.397-.647 20.422-6.51l39.801-46.434v-16z" fill="#cccbb2"/><path d="m336 319.178v-104.608c.031-11.457-4.522-22.45-12.646-30.529l-26.313-26.314c-5.808-5.776-9.064-13.636-9.041-21.827v-7.9c4.418 0 8-3.582 8-8v-48c0-4.418-3.582-8-8-8h-64c-4.418 0-8 3.582-8 8v48c0 4.418 3.582 8 8 8v7.9c.022 8.191-3.233 16.051-9.041 21.827l-26.313 26.314c-8.124 8.079-12.677 19.072-12.646 30.529v104.608c.015 12.303 2.879 24.435 8.368 35.446 3.946 7.919 3.359 17.343-1.54 24.71-4.459 6.677-6.836 14.527-6.828 22.556v22.966c-.046 16.949 6.69 33.213 18.708 45.165 6.375 6.411 15.051 10.004 24.092 9.979 5.456.014 10.691-2.154 14.538-6.022l4.5-4.5c5.758 10.033 18.559 13.499 28.593 7.741 3.221-1.849 5.893-4.52 7.741-7.741l4.5 4.5c3.845 3.866 9.076 6.034 14.528 6.022 9.04.025 17.714-3.568 24.089-9.978 12.019-11.952 18.757-28.216 18.711-45.166v-22.966c.008-8.029-2.369-15.88-6.829-22.556-4.898-7.368-5.485-16.791-1.539-24.71 5.489-11.011 8.353-23.143 8.368-35.446zm-144-15.178v-80h81.87l-8.959 14.932c-2.79 4.693-8.336 6.99-13.627 5.643l-1.479-.37c-12.914-3.294-26.371 2.895-32.274 14.844l-22.475 44.951zm39.842-37.8c2.576-5.214 8.45-7.915 14.085-6.477l1.479.37c12.125 3.084 24.833-2.18 31.226-12.934l13.898-23.159h27.47v5.04l-37.875 44.188c-3.044 3.575-7.856 5.108-12.407 3.955-15.205-3.783-30.602 5.457-34.418 20.653l-1.546 6.164h-20.81zm18.974 35.512c1.666-6.631 8.386-10.662 15.021-9.011 10.432 2.645 21.46-.87 28.436-9.065l25.727-30.01v50.374h-69.754zm-18.816-221.712h48v32h-48zm-5.727 89.041c8.818-8.771 13.761-20.704 13.727-33.141v-7.9h32v7.9c-.034 12.437 4.909 24.37 13.727 33.141l26.313 26.313c3.498 3.482 5.974 7.856 7.16 12.646h-126.4c1.187-4.791 3.664-9.165 7.163-12.646zm93.727 255.815c.035 12.704-5.014 24.894-14.022 33.852-3.381 3.4-7.983 5.306-12.778 5.292-1.21.003-2.37-.477-3.223-1.335l-5.33-5.329c-5.906-5.908-15.484-5.909-21.391-.002-1.15 1.15-2.107 2.478-2.835 3.932-1.222 2.442-4.192 3.432-6.635 2.21-.956-.478-1.732-1.254-2.21-2.21-3.734-7.473-12.819-10.504-20.292-6.77-1.456.727-2.784 1.685-3.935 2.836l-5.33 5.33c-.851.858-2.01 1.34-3.219 1.338-4.795.013-9.396-1.893-12.777-5.292-9.008-8.958-14.058-21.148-14.023-33.852v-22.966c-.004-4.87 1.437-9.631 4.142-13.681 8.076-12.147 9.044-27.685 2.537-40.74-4.251-8.541-6.526-17.929-6.655-27.469h127.952c-.129 9.54-2.404 18.928-6.655 27.469-6.507 13.055-5.54 28.592 2.536 40.739 2.705 4.05 4.147 8.812 4.143 13.682z"/><path d="m34.343 461.657c1.5 1.5 3.535 2.343 5.657 2.343h96c2.122 0 4.157-.843 5.657-2.343l16-16c1.5-1.5 2.343-3.535 2.343-5.657v-160c0-1.242-.289-2.467-.845-3.578l-16-32c-1.355-2.71-4.125-4.422-7.155-4.422h-96c-3.03 0-5.8 1.712-7.155 4.422l-16 32c-.556 1.111-.845 2.336-.845 3.578v160c0 2.122.843 4.157 2.343 5.657zm-2.343-173.657h112v136h-112zm100.687 160h-89.374l-8-8h105.373zm-87.743-192h86.112l8 16h-102.112z"/><path d="m466.8 224.689c-1.959-2.449-3.113-5.444-3.305-8.574l-6.848-88.147c4.152-.337 7.35-3.803 7.353-7.968v-17.452c-.014-12.447-10.101-22.534-22.548-22.548h-34.9c-12.449.012-22.538 10.099-22.552 22.548v17.452c.003 4.167 3.204 7.633 7.357 7.968l-6.857 88.232c-.203 3.1-1.355 6.063-3.3 8.485l-22.367 27.959c-4.417 5.538-6.826 12.411-6.833 19.495v160.661c.021 17.223 13.977 31.179 31.2 31.2h81.6c17.223-.021 31.179-13.977 31.2-31.2v-160.661c-.009-7.084-2.419-13.955-6.837-19.492zm-66.8-122.141c.004-3.615 2.933-6.544 6.548-6.548h34.9c3.616.002 6.548 2.932 6.552 6.548v9.452h-48zm-28.669 160.094 22.369-27.959c3.976-4.947 6.336-10.996 6.762-17.329l6.938-89.354h33.2l6.935 89.267c.416 6.363 2.779 12.443 6.769 17.417l22.367 27.958c2.153 2.699 3.327 6.048 3.331 9.5v7.858h-112.002v-7.861c.004-3.451 1.179-6.799 3.331-9.497zm76.669 98.973 19.562 13.041 8.876-13.312-24-16-4.454 6.679c0-.11.015-.219.01-.33-.112-2.917-1.805-5.542-4.416-6.848l-48-24-7.156 14.31 34.966 17.483-27.5 16.5 8.232 13.72 27.829-16.7c-.497 14.772-4.753 29.173-12.366 41.842h-51.583v-112h112v112h-42.251c6.757-13.983 10.262-29.314 10.251-44.844zm16.8 86.385h-81.6c-8.39-.01-15.19-6.81-15.2-15.2v-8.8h112v8.8c-.01 8.39-6.81 15.19-15.2 15.2z"/><path d="m88 408c30.879 0 56-21.533 56-48s-25.121-48-56-48-56 21.533-56 48 25.121 48 56 48zm0-80c22.056 0 40 14.355 40 32s-17.944 32-40 32-40-14.355-40-32 17.944-32 40-32z"/><path d="m452.053 326.216-12.9-25.794-14.31 7.156 16 32c1.779 3.563 5.908 5.273 9.685 4.011l24-8-5.06-15.178z"/></g></svg>