<?xml version="1.0"?>
<svg xmlns="http://www.w3.org/2000/svg" xmlns:xlink="http://www.w3.org/1999/xlink" xmlns:svgjs="http://svgjs.com/svgjs" version="1.1" width="512" height="512" x="0" y="0" viewBox="0 0 512.015 512.015" style="enable-background:new 0 0 512 512" xml:space="preserve" class=""><g><g xmlns="http://www.w3.org/2000/svg"><path d="m227.007 295.796v50.214h58.001v-50.214c-9.125 3.023-18.875 4.66-29.001 4.66-10.125 0-19.875-1.638-29-4.66z" fill="#ffffff" data-original="#000000" style="" class=""/><path d="m178.415 258.21c-21.653 11.655-36.407 34.534-36.407 60.799v27h54.999v-66.889c-7.198-5.983-13.479-13.034-18.592-20.91z" fill="#ffffff" data-original="#000000" style="" class=""/><path d="m370.007 319.01c0-26.265-14.755-49.144-36.407-60.799-5.113 7.876-11.394 14.926-18.592 20.909v66.89h54.999z" fill="#ffffff" data-original="#000000" style="" class=""/><path d="m367.578 466.015h-220.141c-4.527 12.768-14.662 22.902-27.429 27.43v18.562h275v-18.562c-12.768-4.526-22.904-14.662-27.43-27.43z" fill="#ffffff" data-original="#000000" style="" class=""/><circle cx="256.007" cy="208.009" r="62.447" fill="#ffffff" data-original="#000000" style="" class=""/><path d="m497.015 376.01h-8.008-463-11.007c-8.284 0-15 6.716-15 15 0 6.899 4.664 12.696 11.007 14.446v91.551c0 8.284 6.716 15 15 15h64v-30.991c0-8.284 6.716-15 15-15 8.271 0 15-6.729 15-15 0-8.284 6.716-15 15-15h245c8.284 0 15 6.716 15 15 0 8.271 6.729 15 15 15 8.284 0 15 6.716 15 15v30.991h64c8.284 0 15-6.716 15-15v-92.731c4.76-2.514 8.008-7.508 8.008-13.266 0-8.285-6.716-15-15-15z" fill="#ffffff" data-original="#000000" style="" class=""/><path d="m451.007 142.485v203.525h30v-203.51c-4.848.988-9.864 1.509-15 1.509-5.077 0-10.098-.523-15-1.524z" fill="#ffffff" data-original="#000000" style="" class=""/><path d="m46.007 114.009c11.517 0 22.033-4.354 30-11.495 7.968 7.141 18.483 11.495 30 11.495s22.032-4.354 30-11.495c7.968 7.141 18.483 11.495 30 11.495s22.032-4.354 30-11.495c7.968 7.141 18.483 11.495 30 11.495s22.032-4.354 30-11.495c7.968 7.141 18.483 11.495 29.999 11.495 11.517 0 22.033-4.354 30.001-11.495 7.968 7.141 18.483 11.495 30 11.495 11.516 0 22.032-4.353 29.999-11.494 7.968 7.141 18.483 11.494 30 11.494s22.032-4.354 30-11.495c7.968 7.141 18.483 11.495 30 11.495 24.813 0 45-20.187 45-44.999v-54.001c0-8.284-6.716-15-15-15h-480c-8.284 0-15 6.716-15 15v54.001c.001 24.812 20.188 44.999 45.001 44.999z" fill="#ffffff" data-original="#000000" style="" class=""/><path d="m31.007 142.499v203.51h30v-203.524c-4.902 1.001-9.923 1.524-15 1.524-5.135 0-10.151-.521-15-1.51z" fill="#ffffff" data-original="#000000" style="" class=""/></g></g></svg>
