<?xml version="1.0"?>
<svg xmlns="http://www.w3.org/2000/svg" xmlns:xlink="http://www.w3.org/1999/xlink" xmlns:svgjs="http://svgjs.com/svgjs" version="1.1" width="512" height="512" x="0" y="0" viewBox="0 0 64 64" style="enable-background:new 0 0 512 512" xml:space="preserve" class=""><g><g xmlns="http://www.w3.org/2000/svg"><path d="m26 48c0 .379-.214.725-.553.895l-4 2c-.141.07-.294.105-.447.105-.183 0-.365-.05-.525-.149-.295-.183-.475-.504-.475-.851v-3.134l-3 1.714v11.696l12-6.857v-11.696l-3 1.714z" fill="#ffffff" data-original="#000000" style="" class=""/><path d="m53 59c0 1.103.897 2 2 2s2-.897 2-2v-2h-4z" fill="#ffffff" data-original="#000000" style="" class=""/><path d="m3 53.42 12 6.857v-11.697l-12-6.857z" fill="#ffffff" data-original="#000000" style="" class=""/><path d="m7.125 38.223-3.109 1.777 11.984 6.848 3.11-1.777z" fill="#ffffff" data-original="#000000" style="" class=""/><path d="m53 55h1v-20.465l-1-.667z" fill="#ffffff" data-original="#000000" style="" class=""/><path d="m53 4.414v6.586h6.586z" fill="#ffffff" data-original="#000000" style="" class=""/><path d="m27.984 40-11.984-6.848-3.109 1.777 11.984 6.848z" fill="#ffffff" data-original="#000000" style="" class=""/><path d="m22 45v3.382l2-1v-3.802l-13.125-7.5-1.735.991 12.356 7.06c.312.179.504.51.504.869z" fill="#ffffff" data-original="#000000" style="" class=""/><path d="m52 13c-.553 0-1-.448-1-1v-9h-24v34.134l3.496 1.998c.312.178.504.509.504.868v9h20v-17c0-.12.021-.239.063-.351l3-8c.147-.39.52-.649.937-.649s.79.259.937.649l3 8c.042.112.063.231.063.351v17h2v-36zm-23 2h2v2h-2zm20 14h-20v-2h20zm0-4h-20v-2h20zm6-4h-26v-2h26zm4 0h-2v-2h2zm0-4h-26v-2h26z" fill="#ffffff" data-original="#000000" style="" class=""/><path d="m56.785 31.608-1.785-4.76-1.785 4.76 1.785 1.19z" fill="#ffffff" data-original="#000000" style="" class=""/><path d="m56 55h1v-21.132l-1 .667z" fill="#ffffff" data-original="#000000" style="" class=""/></g></g></svg>
